<?xml version="1.0" encoding="utf-8"?>
<!-- Generator: Adobe Illustrator 18.1.1, SVG Export Plug-In . SVG Version: 6.00 Build 0)  -->
<svg version="1.1" id="Layer_1" xmlns="http://www.w3.org/2000/svg" xmlns:xlink="http://www.w3.org/1999/xlink" x="0px" y="0px"
	 viewBox="0 0 256 150" style="enable-background:new 0 0 256 150;" xml:space="preserve">
<g>
	<path style="fill:#BB9D6E;" d="M192,86.1C192.1,86.1,192.1,86.1,192,86.1c11.9-3.6,24.3-8.4,36.1-14.9c19-11.1,28.7,0.4,21.7,17.8
		c-6,16.4-38,47.1-65.9,54c-10.7-7.5-31.6-12.7-55.8-12.8c-24.2,0.1-45.2,5.3-55.8,12.8c-27.9-7-59.9-37.6-65.9-54
		c-7-17.4,2.7-28.9,21.7-17.8C40,77.7,52.3,82.5,64.2,86.1c25.5,7.7,49,9.6,61.2,9.6l6.7,0C144.4,95.6,167.2,93.6,192,86.1z"/>
	<g id="XMLID_1_">
		<path style="fill:#BB9D6E;" d="M157.6,8.8c9.9,5,26.1,51.7,32.4,70.9c-24,7-45.9,8.9-57.9,9l-6.7,0c-11.9,0-34.4-1.8-59.2-9
			c6.3-19.2,22.5-66,32.4-71c11.4-5.7,21.2,3.7,29.1,4.7h-1.5c0.6,0.1,1.3,0.1,1.9,0c0.7,0.1,1.3,0,1.9,0h-1.5
			C136.4,12.5,146.2,3.1,157.6,8.8z M153.7,45.1c0-2.1-1.7-3.8-3.8-3.8c-1.9,0-3.5,1.4-3.7,3.3l-11.6-1.7l-5.1-10.3
			c1.4-0.6,2.3-1.9,2.3-3.5c0-2.1-1.7-3.8-3.8-3.8c-2.1,0-3.8,1.7-3.8,3.8c0,1.6,1,2.9,2.4,3.5l-5.1,10.3L110,44.6
			c-0.2-1.8-1.8-3.3-3.7-3.3c-2.1,0-3.8,1.7-3.8,3.8c0,2.1,1.7,3.8,3.8,3.8c1.3,0,2.4-0.6,3.1-1.6l8.2,8l-2.1,12.1
			c-0.5-0.2-1-0.3-1.5-0.3c-2.1,0-3.8,1.7-3.8,3.8c0,2.1,1.7,3.8,3.8,3.8c2.1,0,3.8-1.7,3.8-3.8c0-0.8-0.2-1.5-0.7-2.1l11-5.8
			l10.9,5.8c-0.4,0.6-0.7,1.3-0.7,2.1c0,2.1,1.7,3.8,3.8,3.8c2.1,0,3.8-1.7,3.8-3.8c0-2.1-1.7-3.8-3.8-3.8c-0.5,0-1,0.1-1.5,0.3
			l-2.1-12.1l8.2-8c0.7,1,1.8,1.6,3.1,1.6C152,48.8,153.7,47.2,153.7,45.1z"/>
	</g>
</g>
<g>
</g>
<g>
</g>
<g>
</g>
<g>
</g>
<g>
</g>
<g>
</g>
<g>
</g>
<g>
</g>
<g>
</g>
<g>
</g>
<g>
</g>
<g>
</g>
<g>
</g>
<g>
</g>
<g>
</g>
</svg>
