<?xml version="1.0" encoding="utf-8"?>
<!-- Generator: Adobe Illustrator 18.1.1, SVG Export Plug-In . SVG Version: 6.00 Build 0)  -->
<svg version="1.1" id="Layer_1" xmlns="http://www.w3.org/2000/svg" xmlns:xlink="http://www.w3.org/1999/xlink" x="0px" y="0px"
	 viewBox="0 0 256 256" style="enable-background:new 0 0 256 256;" xml:space="preserve">
<g id="Your_Icon_2_">
	<path style="fill:#BB9D6E;" d="M44.7,247.1c3,0.3,5.6-1.8,6.1-4.6c-0.3,3.2,2.1,5.9,5.2,6.2c3.2,0.3,6-2,6.3-5.2
		c0.3-3.4,1.1-12,1.5-15.1c0.1,0,0.2,0,0.2,0c20.5,1.7,43.7-13.6,48.3-46.1c2-14-1.6-28-10.1-39.3c-5.8-7.7-13.4-13.5-22.1-17.1
		c0.6-1.3,1.1-2.6,1.3-4.1c0.5-3.7-0.4-7.4-2.7-10.4c-2.3-3-5.5-4.9-9.2-5.4c-6.9-1-13.5,3.3-15.4,10c-0.2,0.6-0.3,1.2-0.4,1.9
		c-0.2,1.5-0.1,2.9,0.1,4.3c-1.5,0.2-3,0.4-4.5,0.7l-3.7-10c3.7-2.6,6.5-6.4,7.8-10.9c0.6-2.2,0.9-4.5,0.7-6.8l-1.7-25.4
		c-0.2-2.4-0.7-4.6-1.7-6.8l13.6-11.2c0.3,0.2,0.6,0.4,1,0.5c4.8,2.4,10.3,2.7,15.4,1l24.1-8.2c6.2-2.1,11.1-7.2,12.9-13.5
		c0,0,0-0.1,0-0.1l12-0.2c2,4.9,5.8,9,11,11.1l23.6,9.7c4.9,2,10.3,2,15.2,0.1l5.3,6.7c-1.1,1.7-2,3.5-2.6,5.5
		c-0.8,2.7-1,5.5-0.6,8.2l3.5,25.3c1,7.5,6.2,13.5,12.8,16.1l-0.3,8.4c-17.7,0.6-34.7,9.9-44.3,26.3c-3,5.2-5.2,10.4-6.6,15.4
		c-6.3,22.2,2.1,41.4,16.1,50.7c0.1,0,0.1,0.1,0.2,0.2c-1.6,2.7-6.3,10.1-8.1,12.9c-1.7,2.7-0.9,6.2,1.8,7.9
		c2.7,1.7,6.2,0.9,7.9-1.8l0,0c-0.2,0.4-0.4,0.7-0.5,1.1c-0.7,2.4,0.3,5,2.5,6.4c2.7,1.7,6.2,0.9,7.9-1.8c0.7-1.1,6.4-10.1,8.3-13.3
		c0.1,0,0.2,0,0.2,0.1c18.4,9.3,45.6,3.8,62-24.5c12.4-21.3,8.1-47.8-8.7-64.4c1.1-1,2-2,2.8-3.3c0.6-1,1-2.1,1.4-3.2
		c1.8-6.2-0.9-12.7-6.4-16c-6.7-3.9-15.3-1.6-19.2,5.1c-0.6,1-1,2.1-1.4,3.2c-0.1,0.3-0.1,0.6-0.2,0.8c-1.5-0.4-2.9-0.8-4.4-1
		l0.3-8.5c7.1-1.6,12.9-6.9,15-14.1c0.8-2.7,1-5.5,0.6-8.2l-3.5-25.2c-1.5-11-11.7-18.7-22.7-17.2c-1.8,0.3-3.6,0.8-5.2,1.5
		l-5.1-6.5c0.8-1.2,1.5-2.5,2.1-3.8c4.3-10.4-0.8-22.1-10.9-26.3L156,5.1c-5-2-10.4-2-15.4,0c-5,2.1-8.8,5.9-10.9,10.9
		c-0.3,0.7-0.5,1.4-0.8,2.2c-0.1,0.5-0.2,1-0.3,1.5l-11.2,0.2c0-0.1-0.1-0.2-0.1-0.4c-1.7-5.1-5.3-9.2-10.2-11.6
		c-4.8-2.4-10.3-2.7-15.4-1l-24.1,8.2c-6.2,2.1-11.1,7.2-12.9,13.5c-1.1,3.9-1,8.1,0.3,12c0.3,1,0.7,1.9,1.2,2.7L43.3,54.2
		c-3.6-2.4-7.9-3.5-12.3-3.2c-8.5,0.6-15.7,6.4-18,14.6c-0.6,2.2-0.9,4.5-0.7,6.8l1.7,25.4c0.7,10.8,9.9,19.1,20.7,18.8l3.6,9.8
		c-14.1,6.3-25.2,18.5-29.6,33.9c-0.7,2.3-1.2,4.7-1.5,7.2c-4.6,32.5,13.5,53.5,33.6,57.6c0.1,0,0.2,0,0.3,0.1
		c-0.4,3.8-1.4,14.4-1.5,15.7C39.2,244,41.5,246.8,44.7,247.1z M235.2,196.1c-9.7,16.8-29,29.1-46.9,20c-5.5-2.8-12-1.2-14.8,3.5
		c2.7-4.9,0.8-11.2-4.3-14.6c-16.7-11.1-15.6-33.8-5.9-50.6c11.5-19.8,37-26.6,56.8-15.1C239.9,150.8,246.7,176.3,235.2,196.1z
		 M224.9,125.9c0.7-1.2,2.2-1.6,3.4-0.9c1,0.6,1.5,1.7,1.2,2.8c-0.1,0.2-0.1,0.4-0.2,0.6c-0.7,1.2-2.2,1.6-3.4,0.9c0,0,0,0,0,0
		c0,0,0,0,0,0C224.7,128.7,224.3,127.1,224.9,125.9z M210,68.7l3.5,25.2c0.2,1.2,0.1,2.4-0.2,3.5c-0.6,2-1.8,3.7-3.5,4.8l0.3-8.2
		c0.1-3.2-2.4-5.8-5.6-5.9c-2.7-0.1-5,1.7-5.7,4.2c-0.1,0.4-0.2,0.9-0.2,1.4l-0.2,6.9c-1-1.2-1.7-2.6-1.9-4.2L193,71
		c-0.1-0.6-0.1-1.2-0.1-1.8l4,5c2,2.5,5.6,2.9,8.1,1c2.5-2,2.9-5.6,1-8.1l-4.6-5.8C205.6,61.2,209.4,64.3,210,68.7z M145,15.8
		c2.1-0.9,4.5-0.9,6.6,0l23.6,9.7c3.7,1.5,5.8,5.4,5.2,9.3l-2.8-3.5c-2-2.5-5.6-2.9-8.1-1c-1,0.8-1.7,1.8-2,2.9
		c-0.5,1.7-0.2,3.6,1,5.1l2.9,3.7c-1-0.1-1.9-0.2-2.8-0.6L145,31.7c-0.5-0.2-1-0.5-1.4-0.8l4.3-0.1c3.2-0.1,5.7-2.7,5.6-5.9
		c-0.1-3.2-2.7-5.7-5.9-5.6l-6.8,0.1C141.8,17.8,143.2,16.5,145,15.8z M71.4,26.1l24.1-8.2c2.2-0.7,4.5-0.6,6.6,0.4
		c1,0.5,1.8,1.1,2.5,1.9l-4.6,0.1c-2.6,0.1-4.7,1.8-5.4,4.2c-0.2,0.5-0.2,1.1-0.2,1.7c0.1,3.2,2.7,5.7,5.9,5.6l4.5-0.1
		c-1,1.1-2.2,2-3.7,2.5L77,42.4c-0.6,0.2-1.1,0.3-1.7,0.4l4.2-3.4c2.5-2,2.8-5.7,0.8-8.1c-2-2.5-5.6-2.8-8.1-0.8l-6.4,5.2
		C65.1,31.7,67.5,27.4,71.4,26.1z M25.4,97.1l-1.7-25.4c-0.3-4.7,3.4-8.9,8-9.2c0.5,0,1,0,1.4,0l-3.9,3.2c-0.9,0.8-1.6,1.8-1.9,2.9
		c-0.5,1.8-0.2,3.7,1.1,5.2c2,2.5,5.6,2.8,8.1,0.8l4.3-3.5l1.6,24.9c0.1,1,0,2-0.3,2.9c-0.2,0.8-0.6,1.6-1,2.3l-2.1-5.6
		c-1.1-3-4.4-4.5-7.4-3.4c-1.8,0.7-3.1,2.1-3.6,3.8c-0.3,1.1-0.3,2.4,0.1,3.6l1.7,4.6C27.5,102.8,25.6,100.2,25.4,97.1z M65.4,121.3
		c-0.2-0.3-0.6-1-0.5-1.9c0.2-1.4,1.5-2.3,2.8-2.1c0.9,0.1,1.4,0.7,1.7,1c0.2,0.3,0.6,1,0.5,1.9c0,0.1,0,0.2-0.1,0.3
		c-0.3,1.2-1.5,1.9-2.8,1.8l0,0c0,0,0,0,0,0C66.2,122.2,65.7,121.6,65.4,121.3z M18.5,169.1c3.2-22.7,24.3-38.6,47-35.4
		c11,1.6,20.7,7.3,27.4,16.2c6.7,8.9,9.5,19.8,7.9,30.8c-3.6,25.4-20.8,37.4-35.9,36.2c-6.1-0.5-11.5,3.3-12.4,8.8
		c0.6-5.5-3.5-10.7-9.5-11.9C23.3,209.8,15.8,188.3,18.5,169.1z"/>
</g>
<g>
</g>
<g>
</g>
<g>
</g>
<g>
</g>
<g>
</g>
<g>
</g>
<g>
</g>
<g>
</g>
<g>
</g>
<g>
</g>
<g>
</g>
<g>
</g>
<g>
</g>
<g>
</g>
<g>
</g>
</svg>
